SplineFontDB: 3.2
FontName: essiah
FullName: essiah
FamilyName: essiah
Weight: Regular
Copyright: Copyright (c) 2024, Michael Chapman
UComments: "2024-11-22: Created with FontForge (http://fontforge.org)"
Version: 001.000
DefaultBaseFilename: essiah
ItalicAngle: 0
UnderlinePosition: 0
UnderlineWidth: 0
Ascent: 512
Descent: 512
InvalidEm: 0
LayerCount: 2
Layer: 0 0 "Back" 1
Layer: 1 0 "Fore" 0
XUID: [1021 96 -335474456 15605780]
StyleMap: 0x0040
FSType: 0
OS2Version: 4
OS2_WeightWidthSlopeOnly: 0
OS2_UseTypoMetrics: 1
CreationTime: 1732266389
ModificationTime: 1738157526
PfmFamily: 33
TTFWeight: 400
TTFWidth: 5
LineGap: 0
VLineGap: 0
Panose: 2 0 6 3 0 0 0 0 0 0
OS2TypoAscent: 512
OS2TypoAOffset: 0
OS2TypoDescent: -512
OS2TypoDOffset: 0
OS2TypoLinegap: 0
OS2WinAscent: 512
OS2WinAOffset: 0
OS2WinDescent: -512
OS2WinDOffset: 0
HheadAscent: 512
HheadAOffset: 0
HheadDescent: -512
HheadDOffset: 0
OS2SubXSize: 256
OS2SubYSize: 256
OS2SubXOff: 0
OS2SubYOff: 128
OS2SupXSize: 256
OS2SupYSize: 256
OS2SupXOff: 0
OS2SupYOff: 768
OS2StrikeYSize: 64
OS2StrikeYPos: 0
OS2CapHeight: 448
OS2XHeight: 448
OS2Vendor: 'PfEd'
OS2CodePages: 00000001.00000000
OS2UnicodeRanges: 00000003.00000000.00000000.00000000
MarkAttachClasses: 1
DEI: 91125
LangName: 1033
Encoding: ISO8859-1
UnicodeInterp: none
NameList: AGL For New Fonts
DisplaySize: -48
AntiAlias: 1
FitToEm: 0
WinInfo: 96 16 11
BeginPrivate: 0
EndPrivate
Grid
0 -176 m 25
 1024 -176 l 1049
688 -512 m 25
 688 512 l 1049
0 176 m 25
 1024 176 l 1049
336 -512 m 25
 336 512 l 1049
0 -288 m 25
 1024 -288 l 1049
0 -32 m 25
 1024 -32 l 1049
0 96 m 25
 1024 96 l 1049
0 352 m 25
 1024 352 l 1049
0 -352 m 25
 1024 -352 l 1049
0 -96 m 25
 1024 -96 l 1049
0 288 m 25
 1024 288 l 1049
0 32 m 25
 1024 32 l 1049
224 -512 m 25
 224 512 l 1049
480 -512 m 25
 480 512 l 1049
864 -512 m 25
 864 512 l 1049
608 -512 m 25
 608 512 l 1049
160 -512 m 25
 160 512 l 1049
416 -512 m 25
 416 512 l 1049
800 -512 m 25
 800 512 l 1049
544 -512 m 25
 544 512 l 1049

StartChar: less
Encoding: 60 60 0
Width: 1024
VWidth: 1689
Flags: HW
LayerCount: 2
Fore
SplineSet
576 384 m 1
 576 256 l 1
 384 0 l 1
 576 -256 l 1
 576 -384 l 1
 256 0 l 1
 576 384 l 1
768 384 m 5
 768 256 l 5
 576 0 l 5
 768 -256 l 5
 768 -384 l 5
 448 0 l 5
 768 384 l 5
EndSplineSet
Validated: 1
EndChar

StartChar: greater
Encoding: 62 62 1
Width: 1024
VWidth: 1689
Flags: HW
LayerCount: 2
Fore
SplineSet
448 384 m 1
 768 0 l 1
 448 -384 l 1
 448 -256 l 1
 640 0 l 1
 448 256 l 1
 448 384 l 1
256 384 m 1
 576 0 l 1
 256 -384 l 1
 256 -256 l 1
 448 0 l 1
 256 256 l 1
 256 384 l 1
EndSplineSet
Validated: 1
EndChar

StartChar: period
Encoding: 46 46 2
Width: 1024
VWidth: 1689
Flags: HW
LayerCount: 2
Fore
SplineSet
448 384 m 1
 576 384 l 1
 576 -384 l 1
 448 -384 l 1
 448 384 l 1
EndSplineSet
Validated: 1
EndChar

StartChar: uni00A0
Encoding: 160 160 4
Width: 1024
VWidth: 1689
Flags: HW
LayerCount: 2
Back
SplineSet
0 16 m 29
 1024 16 l 29
 1024 -16 l 29
 0 -16 l 29
 0 16 l 29
EndSplineSet
Fore
SplineSet
512 287.005418314 m 1
 532.273704062 254.896833231 544 216.835397855 544 176 c 0
 544 135.164602145 532.273704062 97.103166769 512 64.9945816862 c 1
 491.726295938 97.103166769 480 135.164602145 480 176 c 0
 480 216.835397855 491.726295938 254.896833231 512 287.005418314 c 1
512 -64.9945816862 m 1
 532.273704062 -97.103166769 544 -135.164602145 544 -176 c 0
 544 -216.835397855 532.273704062 -254.896833231 512 -287.005418314 c 1
 491.726295938 -254.896833231 480 -216.835397855 480 -176 c 0
 480 -135.164602145 491.726295938 -97.103166769 512 -64.9945816862 c 1
EndSplineSet
EndChar

StartChar: comma
Encoding: 44 44 5
Width: 1024
VWidth: 1689
Flags: HW
LayerCount: 2
Fore
SplineSet
448 64 m 1
 576 64 l 1
 576 -64 l 1
 448 -64 l 1
 448 64 l 1
EndSplineSet
Validated: 1
EndChar

StartChar: uni008B
Encoding: 139 139 6
Width: 1024
Flags: H
LayerCount: 2
Back
SplineSet
331.125 -180.875 m 1
 377.5 -227.25 441.5 -256 512 -256 c 0
 582.5 -256 646.5 -227.25 692.875 -180.875 c 1025
692.875 -180.875 m 5
 739.25 -134.5 768 -70.5 768 0 c 4
 768 70.5 739.25 134.5 692.875 180.875 c 1025
692.875 180.875 m 1
 646.5 227.25 582.5 256 512 256 c 0
 441.5 256 377.5 227.25 331.125 180.875 c 1025
331.125 180.875 m 1
 284.75 134.5 256 70.5 256 0 c 0
 256 -70.5 284.75 -134.5 331.125 -180.875 c 1025
783.5 271.5 m 1
 853 202 896 106 896 0 c 4
 896 -106 853 -202 783.5 -271.5 c 1029
783.5 -271.5 m 1
 714 -341 618 -384 512 -384 c 0
 406 -384 310 -341 240.5 -271.5 c 1025
240.5 -271.5 m 1
 171 -202 128 -106 128 0 c 0
 128 106 171 202 240.5 271.5 c 1025
240.5 271.5 m 1
 310 341 406 384 512 384 c 0
 618 384 714 341 783.5 271.5 c 1025
EndSplineSet
Fore
Validated: 1
EndChar

StartChar: degree
Encoding: 176 176 7
Width: 1024
VWidth: 1689
Flags: HW
LayerCount: 2
Fore
SplineSet
688 32 m 1048
688 384 m 2
 802.933225743 384 896 291 896 176 c 0
 896 61 803 -32 688 -32 c 2
 336 -32 l 2
 257 -32 192 -97 192 -176 c 0
 192 -255 257.055933839 -320 336 -320 c 2
 688 -320 l 2
 767 -320 832 -255 832 -176 c 1
 896 -176 l 1
 896 -291 803 -384 688 -384 c 2
 336 -384 l 2
 221.081953854 -384 128 -291 128 -176 c 0
 128 -61 221 32 336 32 c 2
 688 32 l 2
 767 32 832 97 832 176 c 0
 832 255 766.954128989 320 688 320 c 2
 336 320 l 2
 257 320 192 255 192 176 c 1
 128 176 l 1
 128 291 221 384 336 384 c 2
 688 384 l 2
EndSplineSet
EndChar

StartChar: plusminus
Encoding: 177 177 8
Width: 1024
VWidth: 1689
Flags: HW
LayerCount: 2
Fore
SplineSet
336 32 m 1048
336 384 m 2
 688 384 l 2
 803 384 896 291 896 176 c 1
 832 176 l 1
 832 255 767 320 688 320 c 2
 336 320 l 2
 257 320 192 255 192 176 c 0
 192 97 257 32 336 32 c 2
 688 32 l 2
 803 32 896 -61 896 -176 c 0
 896 -291 803 -384 688 -384 c 2
 336 -384 l 2
 221 -384 128 -291 128 -176 c 1
 192 -176 l 1
 192 -255 257 -320 336 -320 c 2
 688 -320 l 2
 767 -320 832 -255 832 -176 c 0
 832 -97 767 -32 688 -32 c 2
 336 -32 l 2
 221 -32 128 61 128 176 c 0
 128 291 221 384 336 384 c 2
EndSplineSet
EndChar

StartChar: uni00B2
Encoding: 178 178 9
Width: 1024
VWidth: 1689
Flags: HW
LayerCount: 2
Fore
SplineSet
480 176 m 1048
128 176 m 2
 128 291 221 384 336 384 c 0
 451 384 544 291 544 176 c 2
 544 -176 l 2
 544 -255 609 -320 688 -320 c 0
 767 -320 832 -255 832 -176 c 2
 832 176 l 2
 832 255 767 320 688 320 c 1
 688 384 l 1
 803 384 896 291 896 176 c 2
 896 -176 l 2
 896 -291 803 -384 688 -384 c 0
 573 -384 480 -291 480 -176 c 2
 480 176 l 2
 480 255 415 320 336 320 c 0
 257 320 192 255 192 176 c 2
 192 -176 l 2
 192 -255 257 -320 336 -320 c 1
 336 -384 l 1
 221 -384 128 -291 128 -176 c 2
 128 176 l 2
EndSplineSet
EndChar

StartChar: uni00B3
Encoding: 179 179 10
Width: 1024
VWidth: 1689
Flags: HW
LayerCount: 2
Fore
SplineSet
544 176 m 1048
896 176 m 2
 896 291 803 384 688 384 c 0
 573 384 480 291 480 176 c 2
 480 -176 l 2
 480 -255 415 -320 336 -320 c 0
 257 -320 192 -255 192 -176 c 2
 192 176 l 2
 192 255 257 320 336 320 c 1
 336 384 l 1
 221 384 128 291 128 176 c 2
 128 -176 l 2
 128 -291 221 -384 336 -384 c 0
 451 -384 544 -291 544 -176 c 2
 544 176 l 2
 544 255 609 320 688 320 c 0
 767 320 832 255 832 176 c 2
 832 -176 l 2
 832 -255 767 -320 688 -320 c 1
 688 -384 l 1
 803 -384 896 -291 896 -176 c 2
 896 176 l 2
EndSplineSet
EndChar

StartChar: acute
Encoding: 180 180 11
Width: 1024
VWidth: 1689
Flags: HW
LayerCount: 2
Fore
SplineSet
336 32 m 1052
336 384 m 6
 688 384 l 6
 803 384 896 291 896 176 c 5
 832 176 l 5
 832 255 767 320 688 320 c 6
 336 320 l 6
 257 320 192 255 192 176 c 4
 192 97 257 32 336 32 c 6
 480 32 l 5
 480 176 l 5
 544 176 l 5
 544 32 l 5
 688 32 l 6
 803 32 896 -61 896 -176 c 4
 896 -291 803 -384 688 -384 c 6
 336 -384 l 6
 221 -384 128 -291 128 -176 c 5
 192 -176 l 5
 192 -255 257 -320 336 -320 c 6
 688 -320 l 6
 767 -320 832 -255 832 -176 c 4
 832 -97 767 -32 688 -32 c 6
 544 -32 l 5
 544 -176 l 5
 480 -176 l 5
 480 -32 l 5
 336 -32 l 6
 221 -32 128 61 128 176 c 4
 128 291 221 384 336 384 c 6
EndSplineSet
EndChar

StartChar: mu
Encoding: 181 181 12
Width: 1024
VWidth: 1689
Flags: HW
LayerCount: 2
Fore
SplineSet
480 -176 m 1052
128 -176 m 6
 128 176 l 6
 128 291 221 384 336 384 c 5
 336 320 l 5
 257 320 192 255 192 176 c 6
 192 -176 l 6
 192 -255 257 -320 336 -320 c 4
 415 -320 480 -255 480 -176 c 6
 480 -32 l 5
 336 -32 l 5
 336 32 l 5
 480 32 l 5
 480 176 l 6
 480 291 573 384 688 384 c 4
 803 384 896 291 896 176 c 6
 896 -176 l 6
 896 -291 803 -384 688 -384 c 5
 688 -320 l 5
 767 -320 832 -255 832 -176 c 6
 832 176 l 6
 832 255 767 320 688 320 c 4
 609 320 544 255 544 176 c 6
 544 32 l 5
 688 32 l 5
 688 -32 l 5
 544 -32 l 5
 544 -176 l 6
 544 -291 451 -384 336 -384 c 4
 221 -384 128 -291 128 -176 c 6
EndSplineSet
EndChar

StartChar: paragraph
Encoding: 182 182 13
Width: 1024
VWidth: 1689
Flags: HW
LayerCount: 2
Fore
SplineSet
336 32 m 1052
544 -320 m 5
 688 -320 l 6
 767 -320 832 -255 832 -176 c 4
 832 -97 767 -32 688 -32 c 6
 544 -32 l 5
 544 -320 l 5
480 -320 m 5
 480 -32 l 5
 336 -32 l 6
 221 -32 128 61 128 176 c 4
 128 291 221 384 336 384 c 6
 688 384 l 6
 803 384 896 291 896 176 c 5
 832 176 l 5
 832 255 767 320 688 320 c 6
 544 320 l 5
 544 32 l 5
 688 32 l 6
 803 32 896 -61 896 -176 c 4
 896 -291 803 -384 688 -384 c 6
 336 -384 l 6
 221 -384 128 -291 128 -176 c 5
 192 -176 l 5
 192 -255 257 -320 336 -320 c 6
 480 -320 l 5
480 320 m 5
 336 320 l 6
 257 320 192 255 192 176 c 4
 192 97 257 32 336 32 c 6
 480 32 l 5
 480 320 l 5
EndSplineSet
EndChar

StartChar: periodcentered
Encoding: 183 183 14
Width: 1024
VWidth: 1689
Flags: HW
LayerCount: 2
Fore
SplineSet
480 -176 m 1052
832 32 m 5
 832 176 l 6
 832 255 767 320 688 320 c 4
 609 320 544 255 544 176 c 6
 544 32 l 5
 832 32 l 5
832 -32 m 5
 544 -32 l 5
 544 -176 l 6
 544 -291 451 -384 336 -384 c 4
 221 -384 128 -291 128 -176 c 6
 128 176 l 6
 128 291 221 384 336 384 c 5
 336 320 l 5
 257 320 192 255 192 176 c 6
 192 32 l 5
 480 32 l 5
 480 176 l 6
 480 291 573 384 688 384 c 4
 803 384 896 291 896 176 c 6
 896 -176 l 6
 896 -291 803 -384 688 -384 c 5
 688 -320 l 5
 767 -320 832 -255 832 -176 c 6
 832 -32 l 5
192 -32 m 5
 192 -176 l 6
 192 -255 257 -320 336 -320 c 4
 415 -320 480 -255 480 -176 c 6
 480 -32 l 5
 192 -32 l 5
EndSplineSet
EndChar

StartChar: Agrave
Encoding: 192 192 15
Width: 1024
VWidth: 1689
Flags: HW
LayerCount: 2
Fore
SplineSet
544 -384 m 1
 480 -384 l 1
 480 320 l 25
 336 320 l 2
 257 320 192 255 192 176 c 1
 128 176 l 1
 128 291 221 384 336 384 c 2
 688 384 l 6
 803 384 896 291 896 176 c 5
 832 176 l 5
 832 255 767 320 688 320 c 6
 544 320 l 25
 544 -384 l 1
EndSplineSet
EndChar

StartChar: Aacute
Encoding: 193 193 16
Width: 1024
VWidth: 1689
Flags: HW
LayerCount: 2
Fore
SplineSet
336 -320 m 2
 257 -320 192 -255 192 -176 c 1
 128 -176 l 1
 128 -291 221 -384 336 -384 c 2
 688 -384 l 6
 803 -384 896 -291 896 -176 c 5
 832 -176 l 5
 832 -255 767 -320 688 -320 c 6
 544 -320 l 1
 544 320 l 1
 688 320 l 2
 766.924575075 320 832 255 832 176 c 1
 896 176 l 1
 896 291 803 384 688 384 c 2
 336 384 l 2
 221 384 128 291 128 176 c 1
 192 176 l 1
 192 255 257.074563534 320 336 320 c 2
 480 320 l 25
 480 -320 l 25
 336 -320 l 2
EndSplineSet
EndChar

StartChar: Acircumflex
Encoding: 194 194 17
Width: 1024
VWidth: 1689
Flags: HW
LayerCount: 2
Fore
SplineSet
336 -320 m 2
 480 -320 l 1
 480 -32 l 1
 336 -32 l 1
 336 32 l 1
 480 32 l 1
 480 320 l 1
 336 320 l 2
 257 320 192 255 192 176 c 1
 128 176 l 1
 128 291 221 384 336 384 c 2
 688 384 l 2
 803 384 896 291 896 176 c 1
 832 176 l 1
 832 255 767 320 688 320 c 2
 544 320 l 1
 544 32 l 1
 688 32 l 1
 688 -32 l 1
 544 -32 l 1
 544 -320 l 1
 688 -320 l 2
 767 -320 832 -255 832 -176 c 1
 896 -176 l 1
 896 -291 803 -384 688 -384 c 2
 336 -384 l 2
 221 -384 128 -291 128 -176 c 1
 192 -176 l 1
 192 -255 257 -320 336 -320 c 2
EndSplineSet
EndChar

StartChar: Atilde
Encoding: 195 195 18
Width: 1024
VWidth: 1689
Flags: HW
LayerCount: 2
Fore
SplineSet
832 -176 m 2
 832 -32 l 1
 544 -32 l 1
 544 -176 l 1
 480 -176 l 1
 480 -32 l 1
 192 -32 l 1
 192 -176 l 2
 192 -255 257 -320 336 -320 c 1
 336 -384 l 1
 221 -384 128 -291 128 -176 c 2
 128 176 l 2
 128 291 221 384 336 384 c 1
 336 320 l 1
 257 320 192 255 192 176 c 2
 192 32 l 1
 480 32 l 1
 480 176 l 1
 544 176 l 1
 544 32 l 1
 832 32 l 1
 832 176 l 2
 832 255 767 320 688 320 c 1
 688 384 l 1
 803 384 896 291 896 176 c 2
 896 -176 l 2
 896 -291 803 -384 688 -384 c 1
 688 -320 l 1
 767 -320 832 -255 832 -176 c 2
EndSplineSet
EndChar

StartChar: Adieresis
Encoding: 196 196 19
Width: 1024
VWidth: 1689
Flags: HW
LayerCount: 2
Fore
SplineSet
336 -320 m 2
 480 -320 l 1
 480 -32 l 5
 128 -32 l 5
 128 32 l 5
 480 32 l 5
 480 320 l 1
 336 320 l 2
 257 320 192 255 192 176 c 1
 128 176 l 1
 128 291 221 384 336 384 c 2
 688 384 l 2
 803 384 896 291 896 176 c 1
 832 176 l 1
 832 255 767 320 688 320 c 2
 544 320 l 1
 544 32 l 5
 896 32 l 5
 896 -32 l 5
 544 -32 l 5
 544 -320 l 1
 688 -320 l 2
 767 -320 832 -255 832 -176 c 1
 896 -176 l 1
 896 -291 803 -384 688 -384 c 2
 336 -384 l 2
 221 -384 128 -291 128 -176 c 1
 192 -176 l 1
 192 -255 257 -320 336 -320 c 2
EndSplineSet
EndChar

StartChar: Aring
Encoding: 197 197 20
Width: 1024
VWidth: 1689
Flags: HW
LayerCount: 2
Fore
SplineSet
832 -176 m 2
 832 -32 l 1
 544 -32 l 5
 544 -384 l 5
 480 -384 l 5
 480 -32 l 5
 192 -32 l 1
 192 -176 l 2
 192 -255 257 -320 336 -320 c 1
 336 -384 l 1
 221 -384 128 -291 128 -176 c 2
 128 176 l 2
 128 291 221 384 336 384 c 1
 336 320 l 1
 257 320 192 255 192 176 c 2
 192 32 l 1
 480 32 l 5
 480 384 l 5
 544 384 l 5
 544 32 l 5
 832 32 l 1
 832 176 l 2
 832 255 767 320 688 320 c 1
 688 384 l 1
 803 384 896 291 896 176 c 2
 896 -176 l 2
 896 -291 803 -384 688 -384 c 1
 688 -320 l 1
 767 -320 832 -255 832 -176 c 2
EndSplineSet
EndChar

StartChar: Eth
Encoding: 208 208 21
Width: 1024
VWidth: 1689
Flags: HW
LayerCount: 2
Fore
SplineSet
512 -65 m 5
 529 -39 551 -17 577 0 c 5
 551 17 529 39 512 65 c 5
 495 39 473 17 447 -0 c 5
 473 -17 495 -39 512 -65 c 5
480 -176 m 6
 480 -97 415 -32 336 -32 c 6
 128 -33 l 5
 128 31 l 5
 336 32 l 6
 415 32 480 97 480 176 c 6
 480 320 l 5
 336 320 l 6
 257 320 192 255 192 176 c 5
 128 176 l 5
 128 291 221 384 336 384 c 6
 688 384 l 6
 803 384 896 291 896 176 c 5
 832 176 l 5
 832 255 767 320 688 320 c 6
 544 320 l 5
 544 176 l 6
 544 97 609 32 688 32 c 6
 896 31 l 5
 896 -31 l 5
 688 -32 l 6
 609 -32 544 -97 544 -176 c 6
 544 -320 l 5
 688 -320 l 6
 767 -320 832 -255 832 -176 c 5
 896 -176 l 5
 896 -291 803 -384 688 -384 c 6
 336 -384 l 6
 221 -384 128 -291 128 -176 c 5
 192 -176 l 5
 192 -255 257 -320 336 -320 c 6
 480 -320 l 5
 480 -176 l 6
EndSplineSet
EndChar

StartChar: uni0090
Encoding: 144 144 22
Width: 1024
VWidth: 1689
Flags: HWO
LayerCount: 2
Fore
SplineSet
336 384 m 1052
EndSplineSet
EndChar

StartChar: uni0092
Encoding: 146 146 23
Width: 1024
VWidth: 1689
Flags: HW
LayerCount: 2
Fore
SplineSet
336 -32 m 0
 295.164602145 -32 257.103166769 -20.2737040624 224.994581686 -3.5527136788e-15 c 1
 257.103166769 20.2737040624 295.164602145 32 336 32 c 0
 688 32 l 0
 728.835397855 32 766.896833231 20.2737040624 799.005418314 -3.5527136788e-15 c 1
 766.896833231 -20.2737040624 728.835397855 -32 688 -32 c 0
 336 -32 l 0
EndSplineSet
EndChar

StartChar: exclamdown
Encoding: 161 161 24
Width: 1024
VWidth: 1689
Flags: HW
LayerCount: 2
Fore
SplineSet
224.994581686 -3.5527136788e-15 m 1
 257.103166769 20.2737040624 295.164602145 32 336 32 c 0
 376.835397855 32 414.896833231 20.2737040624 447.005418314 -3.5527136788e-15 c 1
 414.896833231 -20.2737040624 376.835397855 -32 336 -32 c 0
 295.164602145 -32 257.103166769 -20.2737040624 224.994581686 -3.5527136788e-15 c 1
576.994581686 3.5527136788e-15 m 1
 609.103166769 20.2737040624 647.164602145 32 688 32 c 0
 728.835397855 32 766.896833231 20.2737040624 799.005418314 -3.5527136788e-15 c 1
 766.896833231 -20.2737040624 728.835397855 -32 688 -32 c 0
 647.164602145 -32 609.103166769 -20.2737040624 576.994581686 3.5527136788e-15 c 1
EndSplineSet
EndChar

StartChar: hyphen
Encoding: 45 45 25
Width: 1024
Flags: HW
LayerCount: 2
Fore
SplineSet
768 -64 m 1
 256 -64 l 1
 256 64 l 1
 768 64 l 1
 768 -64 l 1
EndSplineSet
Validated: 1
EndChar

StartChar: plus
Encoding: 43 43 26
Width: 1024
Flags: HW
LayerCount: 2
Fore
SplineSet
448 -64 m 1
 256 -64 l 1
 256 64 l 1
 448 64 l 1
 448 256 l 5
 576 256 l 5
 576 64 l 1
 768 64 l 1
 768 -64 l 1
 576 -64 l 1
 576 -256 l 1
 448 -256 l 1
 448 -64 l 1
EndSplineSet
Validated: 1
EndChar

StartChar: asterisk
Encoding: 42 42 27
Width: 1024
Flags: HW
LayerCount: 2
Fore
SplineSet
576 256 m 1
 576 -256 l 1
 448 -256 l 1
 448 256 l 1
 576 256 l 1
128 -64 m 1
 128 64 l 1
 256 64 l 1
 256 -64 l 1
 128 -64 l 1
768 -64 m 1
 768 64 l 1
 896 64 l 1
 896 -64 l 1
 768 -64 l 1
EndSplineSet
Validated: 1
EndChar

StartChar: slash
Encoding: 47 47 28
Width: 1024
Flags: HW
LayerCount: 2
Fore
SplineSet
768 -64 m 1
 256 -64 l 1
 256 64 l 1
 768 64 l 1
 768 -64 l 1
448 384 m 1
 576 384 l 1
 576 256 l 1
 448 256 l 1
 448 384 l 1
448 -256 m 5
 576 -256 l 5
 576 -384 l 5
 448 -384 l 5
 448 -256 l 5
EndSplineSet
Validated: 1
EndChar

StartChar: equal
Encoding: 61 61 29
Width: 1024
Flags: HW
LayerCount: 2
Fore
SplineSet
768 -192 m 5
 256 -192 l 5
 256 -64 l 5
 768 -64 l 5
 768 -192 l 5
768 64 m 5
 256 64 l 5
 256 192 l 5
 768 192 l 5
 768 64 l 5
EndSplineSet
Validated: 1
EndChar

StartChar: dieresis
Encoding: 168 168 30
Width: 1024
VWidth: 1689
Flags: HW
LayerCount: 2
Fore
SplineSet
512 -64.9945816862 m 1
 528.547075818 -38.7880636195 550.788063619 -16.5470758185 576.994581686 3.5527136788e-15 c 1
 550.788063619 16.5470758185 528.547075818 38.7880636195 512 64.9945816862 c 1
 495.452924182 38.7880636195 473.211936381 16.5470758185 447.005418314 -3.5527136788e-15 c 1
 473.211936381 -16.5470758185 495.452924182 -38.7880636195 512 -64.9945816862 c 1
544 -176 m 1
 480 -176 l 1
 480 -97 415 -32 336 -32 c 1
 336 32 l 1
 415 32 480 97 480 176 c 1
 544 176 l 1
 544 97 609 32 688 32 c 1
 688 -32 l 1
 609 -32 544 -97 544 -176 c 1
EndSplineSet
EndChar

StartChar: copyright
Encoding: 169 169 31
Width: 1024
VWidth: 1689
Flags: HW
LayerCount: 2
Fore
SplineSet
512 -64.9945816862 m 1
 528.547075818 -38.7880636195 550.788063619 -16.5470758185 576.994581686 3.5527136788e-15 c 1
 550.788063619 16.5470758185 528.547075818 38.7880636195 512 64.9945816862 c 1
 495.452924182 38.7880636195 473.211936381 16.5470758185 447.005418314 -3.5527136788e-15 c 1
 473.211936381 -16.5470758185 495.452924182 -38.7880636195 512 -64.9945816862 c 1
512 -287.005418314 m 1
 475.179220119 -345.320521463 410.164602145 -384 336 -384 c 1
 336 -320 l 1
 415 -320 480 -255 480 -176 c 0
 480 -97 415 -32 336 -32 c 1
 336 32 l 1
 415 32 480 97 480 176 c 0
 480 255 415 320 336 320 c 1
 336 384 l 1
 410.164602145 384 475.179220119 345.320521463 512 287.005418314 c 1
 548.820779881 345.320521463 613.835397855 384 688 384 c 1
 688 320 l 1
 609 320 544 255 544 176 c 0
 544 97 609 32 688 32 c 1
 688 -32 l 1
 609 -32 544 -97 544 -176 c 0
 544 -255 609 -320 688 -320 c 1
 688 -384 l 1
 613.835397855 -384 548.820779881 -345.320521463 512 -287.005418314 c 1
EndSplineSet
EndChar

StartChar: ordfeminine
Encoding: 170 170 32
Width: 1024
VWidth: 1689
Flags: HW
LayerCount: 2
Fore
SplineSet
512 -65 m 5
 529 -39 551 -17 577 0 c 5
 551 17 529 39 512 65 c 5
 495 39 473 17 447 -0 c 5
 473 -17 495 -39 512 -65 c 5
336 32 m 6
 415 32 480 97 480 176 c 4
 480 255 415 320 336 320 c 5
 336 384 l 5
 410 384 475 345 512 287 c 5
 549 345 614 384 688 384 c 5
 688 320 l 5
 609 320 544 255 544 176 c 4
 544 97 609 32 688 32 c 14
 896 31 l 29
 896 -31 l 29
 688 -32 l 6
 609 -32 544 -97 544 -176 c 4
 544 -255 609 -320 688 -320 c 5
 688 -384 l 5
 614 -384 549 -345 512 -287 c 5
 475 -345 410 -384 336 -384 c 5
 336 -320 l 5
 415 -320 480 -255 480 -176 c 4
 480 -97 415 -32 336 -32 c 14
 128 -33 l 29
 128 31 l 29
 336 32 l 6
EndSplineSet
EndChar

StartChar: guillemotleft
Encoding: 171 171 33
Width: 1024
VWidth: 1689
Flags: HW
LayerCount: 2
Fore
SplineSet
336 32 m 6
 415 32 480 97 480 176 c 4
 480 255 415 320 336 320 c 4
 257 320 192 255 192 176 c 5
 128 176 l 5
 128 291 221 384 336 384 c 4
 410 384 475 345 512 287 c 5
 549 345 614 384 688 384 c 4
 803 384 896 291 896 176 c 5
 832 176 l 5
 832 255 767 320 688 320 c 4
 609 320 544 255 544 176 c 4
 544 97 609 32 688 32 c 6
 896 31 l 5
 896 -31 l 5
 688 -32 l 6
 609 -32 544 -97 544 -176 c 4
 544 -255 609 -320 688 -320 c 4
 767 -320 832 -255 832 -176 c 5
 896 -176 l 5
 896 -291 803 -384 688 -384 c 4
 614 -384 549 -345 512 -287 c 5
 475 -345 410 -384 336 -384 c 4
 221 -384 128 -291 128 -176 c 5
 192 -176 l 5
 192 -255 257 -320 336 -320 c 4
 415 -320 480 -255 480 -176 c 4
 480 -97 415 -32 336 -32 c 6
 128 -33 l 5
 128 31 l 5
 336 32 l 6
512 -65 m 5
 529 -39 551 -17 577 0 c 5
 551 17 529 39 512 65 c 5
 495 39 473 17 447 -0 c 5
 473 -17 495 -39 512 -65 c 5
EndSplineSet
EndChar

StartChar: logicalnot
Encoding: 172 172 34
Width: 1024
VWidth: 1689
Flags: HW
LayerCount: 2
Fore
SplineSet
480 -176 m 6
 480 -97 415 -32 336 -32 c 4
 257 -32 192 -97 192 -176 c 4
 192 -255 257 -320 336 -320 c 5
 336 -384 l 5
 221 -384 128 -291 128 -176 c 4
 128 -102 167 -37 225 0 c 5
 167 37 128 102 128 176 c 4
 128 291 221 384 336 384 c 5
 336 320 l 5
 257 320 192 255 192 176 c 4
 192 97 257 32 336 32 c 4
 415 32 480 97 480 176 c 6
 481 384 l 5
 543 384 l 5
 544 176 l 6
 544 97 609 32 688 32 c 4
 767 32 832 97 832 176 c 4
 832 255 767 320 688 320 c 5
 688 384 l 5
 803 384 896 291 896 176 c 4
 896 102 857 37 799 0 c 5
 857 -37 896 -102 896 -176 c 4
 896 -291 803 -384 688 -384 c 5
 688 -320 l 5
 767 -320 832 -255 832 -176 c 4
 832 -97 767 -32 688 -32 c 4
 609 -32 544 -97 544 -176 c 6
 545 -384 l 5
 481 -384 l 5
 480 -176 l 6
577 0 m 5
 551 17 529 39 512 65 c 5
 495 39 473 17 447 0 c 5
 473 -17 495 -39 512 -65 c 5
 529 -39 551 -17 577 0 c 5
EndSplineSet
EndChar

StartChar: agrave
Encoding: 224 224 35
Width: 1024
VWidth: 1689
Flags: HW
LayerCount: 2
Fore
SplineSet
832 176 m 6
 832 255 767 320 688 320 c 6
 336 320 l 6
 257 320 192 255 192 176 c 6
 192 32 l 5
 832 32 l 5
 832 176 l 6
128 -384 m 5
 128 176 l 6
 128 291 221 384 336 384 c 6
 688 384 l 6
 803 384 896 291 896 176 c 6
 896 -384 l 5
 832 -384 l 5
 832 -32 l 5
 192 -32 l 5
 192 -384 l 5
 128 -384 l 5
EndSplineSet
EndChar

StartChar: Ntilde
Encoding: 209 209 36
Width: 1024
VWidth: 1689
Flags: HW
LayerCount: 2
Fore
SplineSet
577 0 m 5
 551 17 529 39 512 65 c 5
 495 39 473 17 447 0 c 5
 473 -17 495 -39 512 -65 c 5
 529 -39 551 -17 577 0 c 5
688 -32 m 6
 609 -32 544 -97 544 -176 c 6
 545 -384 l 5
 481 -384 l 5
 480 -176 l 6
 480 -97 415 -32 336 -32 c 6
 192 -32 l 5
 192 -176 l 6
 192 -255 257 -320 336 -320 c 5
 336 -384 l 5
 221 -384 128 -291 128 -176 c 6
 128 176 l 6
 128 291 221 384 336 384 c 5
 336 320 l 5
 257 320 192 255 192 176 c 6
 192 32 l 5
 336 32 l 6
 415 32 480 97 480 176 c 6
 481 384 l 5
 543 384 l 5
 544 176 l 6
 544 97 609 32 688 32 c 6
 832 32 l 5
 832 176 l 6
 832 255 767 320 688 320 c 5
 688 384 l 5
 803 384 896 291 896 176 c 6
 896 -176 l 6
 896 -291 803 -384 688 -384 c 5
 688 -320 l 5
 767 -320 832 -255 832 -176 c 6
 832 -32 l 5
 688 -32 l 6
EndSplineSet
EndChar

StartChar: cent
Encoding: 162 162 37
Width: 1024
VWidth: 1689
Flags: HW
LayerCount: 2
Fore
SplineSet
512 287.005418314 m 5
 532.273704062 254.896833231 544 216.835397855 544 176 c 4
 544 135.164602145 532.273704062 97.103166769 512 64.9945816862 c 5
 491.726295938 97.103166769 480 135.164602145 480 176 c 4
 480 216.835397855 491.726295938 254.896833231 512 287.005418314 c 5
224.994581686 -3.5527136788e-15 m 5
 257.103166769 20.2737040624 295.164602145 32 336 32 c 4
 376.835397855 32 414.896833231 20.2737040624 447.005418314 -3.5527136788e-15 c 5
 414.896833231 -20.2737040624 376.835397855 -32 336 -32 c 4
 295.164602145 -32 257.103166769 -20.2737040624 224.994581686 -3.5527136788e-15 c 5
512 -64.9945816862 m 5
 532.273704062 -97.103166769 544 -135.164602145 544 -176 c 4
 544 -216.835397855 532.273704062 -254.896833231 512 -287.005418314 c 5
 491.726295938 -254.896833231 480 -216.835397855 480 -176 c 4
 480 -135.164602145 491.726295938 -97.103166769 512 -64.9945816862 c 5
576.994581686 3.5527136788e-15 m 5
 609.103166769 20.2737040624 647.164602145 32 688 32 c 4
 728.835397855 32 766.896833231 20.2737040624 799.005418314 -3.5527136788e-15 c 5
 766.896833231 -20.2737040624 728.835397855 -32 688 -32 c 4
 647.164602145 -32 609.103166769 -20.2737040624 576.994581686 3.5527136788e-15 c 5
EndSplineSet
EndChar

StartChar: sterling
Encoding: 163 163 38
Width: 1024
VWidth: 1689
Flags: HW
LayerCount: 2
Fore
SplineSet
576.994581686 3.5527136788e-15 m 1
 609.103166769 20.2737040624 647.164602145 32 688 32 c 0
 728.835397855 32 766.896833231 20.2737040624 799.005418314 -3.5527136788e-15 c 1
 766.896833231 -20.2737040624 728.835397855 -32 688 -32 c 0
 647.164602145 -32 609.103166769 -20.2737040624 576.994581686 3.5527136788e-15 c 1
512 -64.9945816862 m 1
 532.273704062 -97.103166769 544 -135.164602145 544 -176 c 0
 544 -216.835397855 532.273704062 -254.896833231 512 -287.005418314 c 1
 491.726295938 -254.896833231 480 -216.835397855 480 -176 c 0
 480 -135.164602145 491.726295938 -97.103166769 512 -64.9945816862 c 1
224.994581686 -3.5527136788e-15 m 1
 257.103166769 20.2737040624 295.164602145 32 336 32 c 0
 376.835397855 32 414.896833231 20.2737040624 447.005418314 -3.5527136788e-15 c 1
 414.896833231 -20.2737040624 376.835397855 -32 336 -32 c 0
 295.164602145 -32 257.103166769 -20.2737040624 224.994581686 -3.5527136788e-15 c 1
512 287.005418314 m 1
 532.273704062 254.896833231 544 216.835397855 544 176 c 0
 544 135.164602145 532.273704062 97.103166769 512 64.9945816862 c 1
 491.726295938 97.103166769 480 135.164602145 480 176 c 0
 480 216.835397855 491.726295938 254.896833231 512 287.005418314 c 1
336 384 m 1
 221 384 128 291 128 176 c 1
 192 176 l 1
 192 255 257.074563534 320 336 320 c 1
 336 384 l 1
688 320 m 1
 766.924575075 320 832 255 832 176 c 1
 896 176 l 1
 896 291 803 384 688 384 c 1
 688 320 l 1
336 -320 m 1
 257 -320 192 -255 192 -176 c 1
 128 -176 l 1
 128 -291 221 -384 336 -384 c 1
 336 -320 l 1
688 -384 m 1
 803 -384 896 -291 896 -176 c 1
 832 -176 l 1
 832 -255 767 -320 688 -320 c 1
 688 -384 l 1
EndSplineSet
EndChar

StartChar: yen
Encoding: 165 165 39
Width: 1024
VWidth: 1689
Flags: HW
LayerCount: 2
Fore
SplineSet
480 -176 m 5
 544 -176 l 5
 544 -384 l 5
 480 -384 l 5
 480 -176 l 5
480 384 m 1
 544 384 l 1
 544 176 l 1
 480 176 l 1
 480 384 l 1
512 -64.9945816862 m 1
 528.547075818 -38.7880636195 550.788063619 -16.5470758185 576.994581686 3.5527136788e-15 c 1
 550.788063619 16.5470758185 528.547075818 38.7880636195 512 64.9945816862 c 1
 495.452924182 38.7880636195 473.211936381 16.5470758185 447.005418314 -3.5527136788e-15 c 1
 473.211936381 -16.5470758185 495.452924182 -38.7880636195 512 -64.9945816862 c 1
544 -176 m 1
 480 -176 l 1
 480 -97 415 -32 336 -32 c 1
 336 32 l 1
 415 32 480 97 480 176 c 1
 544 176 l 1
 544 97 609 32 688 32 c 1
 688 -32 l 1
 609 -32 544 -97 544 -176 c 1
EndSplineSet
EndChar

StartChar: onequarter
Encoding: 188 188 40
Width: 1024
VWidth: 1689
Flags: HW
LayerCount: 2
Fore
SplineSet
688 -384 m 4
 573 -384 480 -291 480 -176 c 2
 480 -32 l 1
 336 -32 l 2
 257 -32 192 -97 192 -176 c 0
 192 -255 257 -320 336 -320 c 1
 336 -384 l 1
 221 -384 128 -291 128 -176 c 0
 128 -61 221 32 336 32 c 2
 480 32 l 1
 480 176 l 2
 480 255 415 320 336 320 c 0
 257 320 192 255 192 176 c 1
 128 176 l 1
 128 291 221 384 336 384 c 0
 451 384 544 291 544 176 c 2
 544 32 l 1
 688 32 l 2
 767 32 832 97 832 176 c 0
 832 255 767 320 688 320 c 1
 688 384 l 1
 803 384 896 291 896 176 c 0
 896 61 803 -32 688 -32 c 2
 544 -32 l 1
 544 -176 l 2
 544 -255 609 -320 688 -320 c 4
 767 -320 832 -255 832 -176 c 5
 896 -176 l 5
 896 -291 803 -384 688 -384 c 4
EndSplineSet
EndChar

StartChar: onehalf
Encoding: 189 189 41
Width: 1024
VWidth: 1689
Flags: HW
LayerCount: 2
Fore
SplineSet
336 -384 m 4
 451 -384 544 -291 544 -176 c 2
 544 -32 l 1
 688 -32 l 2
 767 -32 832 -97 832 -176 c 0
 832 -255 767 -320 688 -320 c 1
 688 -384 l 1
 803 -384 896 -291 896 -176 c 0
 896 -61 803 32 688 32 c 2
 544 32 l 1
 544 176 l 2
 544 255 609 320 688 320 c 0
 767 320 832 255 832 176 c 1
 896 176 l 1
 896 291 803 384 688 384 c 0
 573 384 480 291 480 176 c 2
 480 32 l 1
 336 32 l 2
 257 32 192 97 192 176 c 0
 192 255 257 320 336 320 c 1
 336 384 l 1
 221 384 128 291 128 176 c 0
 128 61 221 -32 336 -32 c 2
 480 -32 l 1
 480 -176 l 2
 480 -255 415 -320 336 -320 c 4
 257 -320 192 -255 192 -176 c 5
 128 -176 l 5
 128 -291 221 -384 336 -384 c 4
EndSplineSet
EndChar

StartChar: ordmasculine
Encoding: 186 186 42
Width: 1024
VWidth: 1689
Flags: HW
LayerCount: 2
Fore
SplineSet
544 -32 m 1
 544 -176 l 2
 544 -255 609 -320 688 -320 c 0
 767 -320 832 -255 832 -176 c 1
 896 -176 l 1
 896 -291 803 -384 688 -384 c 0
 573 -384 480 -291 480 -176 c 2
 480 -32 l 1
 128 -32 l 1
 128 32 l 1
 480 32 l 1
 480 176 l 2
 480 255 415 320 336 320 c 0
 257 320 192 255 192 176 c 1
 128 176 l 1
 128 291 221 384 336 384 c 0
 451 384 544 291 544 176 c 2
 544 32 l 1
 896 32 l 1
 896 -32 l 1
 544 -32 l 1
EndSplineSet
EndChar

StartChar: guillemotright
Encoding: 187 187 43
Width: 1024
VWidth: 1689
Flags: HW
LayerCount: 2
Fore
SplineSet
544 32 m 1
 688 32 l 2
 767 32 832 97 832 176 c 0
 832 255 767 320 688 320 c 1
 688 384 l 1
 803 384 896 291 896 176 c 0
 896 61 803 -32 688 -32 c 2
 544 -32 l 1
 544 -384 l 1
 480 -384 l 1
 480 -32 l 1
 336 -32 l 2
 257 -32 192 -97 192 -176 c 0
 192 -255 257 -320 336 -320 c 1
 336 -384 l 1
 221 -384 128 -291 128 -176 c 0
 128 -61 221 32 336 32 c 2
 480 32 l 1
 480 384 l 1
 544 384 l 1
 544 32 l 1
EndSplineSet
EndChar

StartChar: aacute
Encoding: 225 225 44
Width: 1024
Flags: H
LayerCount: 2
Fore
SplineSet
336 32 m 5
 688 32 l 1
 688 -32 l 1
 336 -32 l 1
 336 32 l 5
192 -384 m 1
 128 -384 l 1
 480 384 l 1
 544 384 l 1
 896 -384 l 1
 832 -384 l 1
 512 320 l 1
 192 -384 l 1
EndSplineSet
EndChar
